<svg xmlns="http://www.w3.org/2000/svg" xmlns:xlink="http://www.w3.org/1999/xlink" width="500" zoomAndPan="magnify" viewBox="0 0 375 149.999998" height="200" preserveAspectRatio="xMidYMid meet" version="1.0"><defs><g/><clipPath id="5ee7dc4944"><path d="M 2 18 L 126.429688 18 L 126.429688 100 L 2 100 Z M 2 18 " clip-rule="nonzero"/></clipPath><clipPath id="5f5156e307"><path d="M 26 73 L 102 73 L 102 136.5 L 26 136.5 Z M 26 73 " clip-rule="nonzero"/></clipPath></defs><g clip-path="url(#5ee7dc4944)"><path fill="#1a347f" d="M 43.667969 88.636719 L 52.558594 54.144531 C 53.03125 52.308594 54.742188 50.855469 56.613281 51.113281 C 58.507812 51.183594 60.097656 52.566406 60.4375 54.429688 L 68.632812 99.554688 L 73.1875 90.8125 C 73.882812 89.46875 75.265625 88.632812 76.773438 88.632812 L 109.128906 88.632812 L 117.617188 79.207031 C 117.90625 78.871094 118.140625 78.5 118.316406 78.105469 C 122.855469 70.367188 126.304688 63.667969 126.304688 54.796875 C 126.304688 35.675781 110.523438 19.527344 91.847656 19.527344 C 80.625 19.527344 70.558594 24.59375 64.203125 33.109375 C 57.757812 24.34375 47.515625 18.957031 36.53125 18.957031 C 17.855469 18.957031 2.078125 35.40625 2.078125 54.886719 C 2.078125 63.683594 5.359375 70.09375 10.035156 78.054688 C 10.207031 78.472656 10.453125 78.859375 10.765625 79.207031 L 19.265625 88.628906 Z M 43.667969 88.636719 " fill-opacity="1" fill-rule="nonzero"/></g><g clip-path="url(#5f5156e307)"><path fill="#1a347f" d="M 79.230469 96.726562 L 70.371094 113.761719 C 69.664062 115.113281 68.277344 115.941406 66.785156 115.941406 C 66.578125 115.941406 66.371094 115.917969 66.179688 115.886719 C 64.472656 115.628906 63.117188 114.3125 62.816406 112.609375 L 55.792969 73.980469 L 50.710938 93.675781 C 50.25 95.464844 48.640625 96.710938 46.796875 96.710938 L 26.566406 96.710938 L 61.257812 135.144531 C 62.027344 135.988281 63.117188 136.472656 64.257812 136.472656 L 64.261719 136.472656 C 65.402344 136.472656 66.5 135.988281 67.257812 135.136719 L 101.851562 96.710938 Z M 79.230469 96.726562 " fill-opacity="1" fill-rule="nonzero"/></g><g fill="#1a347f" fill-opacity="1"><g transform="translate(116.933017, 126.564332)"><g><path d="M 4.203125 -42.015625 L 24.078125 -42.015625 C 28.796875 -42.015625 32.546875 -41.0625 35.328125 -39.15625 C 38.109375 -37.257812 39.5 -34.710938 39.5 -31.515625 C 39.5 -29.316406 38.859375 -27.382812 37.578125 -25.71875 C 36.296875 -24.0625 34.535156 -22.910156 32.296875 -22.265625 C 34.941406 -21.742188 37.039062 -20.523438 38.59375 -18.609375 C 40.15625 -16.691406 40.9375 -14.367188 40.9375 -11.640625 C 40.9375 -8.078125 39.484375 -5.242188 36.578125 -3.140625 C 33.679688 -1.046875 29.753906 0 24.796875 0 L 4.203125 0 Z M 14.828125 -33.859375 L 14.828125 -25.21875 L 23.46875 -25.21875 C 25.03125 -25.21875 26.269531 -25.601562 27.1875 -26.375 C 28.113281 -27.15625 28.578125 -28.226562 28.578125 -29.59375 C 28.578125 -30.914062 28.113281 -31.957031 27.1875 -32.71875 C 26.269531 -33.476562 25.03125 -33.859375 23.46875 -33.859375 Z M 14.828125 -17.53125 L 14.828125 -8.21875 L 23.46875 -8.21875 C 25.46875 -8.21875 27.035156 -8.640625 28.171875 -9.484375 C 29.316406 -10.328125 29.890625 -11.488281 29.890625 -12.96875 C 29.890625 -14.363281 29.316406 -15.472656 28.171875 -16.296875 C 27.035156 -17.117188 25.46875 -17.53125 23.46875 -17.53125 Z M 14.828125 -17.53125 "/></g></g></g><g fill="#1a347f" fill-opacity="1"><g transform="translate(159.848891, 126.564332)"><g><path d="M 19.15625 -32.71875 C 24.4375 -32.71875 28.695312 -31.207031 31.9375 -28.1875 C 35.175781 -25.164062 36.796875 -21.171875 36.796875 -16.203125 C 36.796875 -11.242188 35.175781 -7.242188 31.9375 -4.203125 C 28.695312 -1.160156 24.4375 0.359375 19.15625 0.359375 C 13.832031 0.359375 9.546875 -1.160156 6.296875 -4.203125 C 3.054688 -7.242188 1.4375 -11.242188 1.4375 -16.203125 C 1.4375 -21.171875 3.054688 -25.164062 6.296875 -28.1875 C 9.546875 -31.207031 13.832031 -32.71875 19.15625 -32.71875 Z M 19.15625 -24.5 C 16.988281 -24.5 15.234375 -23.71875 13.890625 -22.15625 C 12.554688 -20.59375 11.890625 -18.570312 11.890625 -16.09375 C 11.890625 -13.570312 12.554688 -11.539062 13.890625 -10 C 15.234375 -8.457031 16.988281 -7.6875 19.15625 -7.6875 C 21.269531 -7.6875 23 -8.457031 24.34375 -10 C 25.6875 -11.539062 26.359375 -13.570312 26.359375 -16.09375 C 26.359375 -18.570312 25.6875 -20.59375 24.34375 -22.15625 C 23 -23.71875 21.269531 -24.5 19.15625 -24.5 Z M 19.15625 -24.5 "/></g></g></g><g fill="#1a347f" fill-opacity="1"><g transform="translate(198.083031, 126.564332)"><g><path d="M 14.53125 -32.359375 L 14.53125 -26.890625 C 16.8125 -30.773438 20.3125 -32.757812 25.03125 -32.84375 L 25.03125 -23.46875 C 22.070312 -23.75 19.648438 -23.257812 17.765625 -22 C 15.890625 -20.738281 14.8125 -18.945312 14.53125 -16.625 L 14.53125 0 L 4.140625 0 L 4.140625 -32.359375 Z M 14.53125 -32.359375 "/></g></g></g><g fill="#1a347f" fill-opacity="1"><g transform="translate(223.71251, 126.564332)"><g><path d="M 18.25 -32.71875 C 21.445312 -32.71875 24.296875 -32.085938 26.796875 -30.828125 C 29.304688 -29.566406 31.257812 -27.773438 32.65625 -25.453125 L 25.21875 -20.953125 C 23.613281 -23.191406 21.429688 -24.3125 18.671875 -24.3125 C 16.671875 -24.3125 15.039062 -23.5625 13.78125 -22.0625 C 12.519531 -20.5625 11.890625 -18.585938 11.890625 -16.140625 C 11.890625 -13.660156 12.507812 -11.671875 13.75 -10.171875 C 14.988281 -8.671875 16.628906 -7.921875 18.671875 -7.921875 C 21.710938 -7.921875 23.910156 -9.144531 25.265625 -11.59375 L 32.84375 -7.140625 C 31.519531 -4.742188 29.585938 -2.894531 27.046875 -1.59375 C 24.503906 -0.289062 21.53125 0.359375 18.125 0.359375 C 13.125 0.359375 9.09375 -1.148438 6.03125 -4.171875 C 2.96875 -7.191406 1.4375 -11.164062 1.4375 -16.09375 C 1.4375 -21.050781 2.988281 -25.0625 6.09375 -28.125 C 9.195312 -31.1875 13.25 -32.71875 18.25 -32.71875 Z M 18.25 -32.71875 "/></g></g></g><g fill="#1a347f" fill-opacity="1"><g transform="translate(257.444987, 126.564332)"><g><path d="M 18.3125 -32.71875 C 23.914062 -32.71875 28.125 -30.992188 30.9375 -27.546875 C 33.757812 -24.109375 34.992188 -19.390625 34.640625 -13.390625 L 11.890625 -13.390625 C 12.410156 -11.460938 13.328125 -9.976562 14.640625 -8.9375 C 15.960938 -7.90625 17.585938 -7.390625 19.515625 -7.390625 C 22.472656 -7.390625 25.050781 -8.488281 27.25 -10.6875 L 32.71875 -5.34375 C 29.238281 -1.539062 24.535156 0.359375 18.609375 0.359375 C 13.367188 0.359375 9.195312 -1.140625 6.09375 -4.140625 C 2.988281 -7.140625 1.4375 -11.125 1.4375 -16.09375 C 1.4375 -21.09375 2.988281 -25.113281 6.09375 -28.15625 C 9.195312 -31.195312 13.269531 -32.71875 18.3125 -32.71875 Z M 11.703125 -18.96875 L 24.671875 -18.96875 C 24.671875 -20.925781 24.097656 -22.503906 22.953125 -23.703125 C 21.816406 -24.910156 20.304688 -25.515625 18.421875 -25.515625 C 16.660156 -25.515625 15.179688 -24.921875 13.984375 -23.734375 C 12.785156 -22.554688 12.023438 -20.96875 11.703125 -18.96875 Z M 11.703125 -18.96875 "/></g></g></g><g fill="#1a347f" fill-opacity="1"><g transform="translate(293.578346, 126.564332)"><g><path d="M 14.828125 0 L 4.4375 0 L 4.4375 -44.546875 L 14.828125 -44.546875 Z M 14.828125 0 "/></g></g></g><g fill="#1a347f" fill-opacity="1"><g transform="translate(312.845467, 126.564332)"><g><path d="M 14.828125 0 L 4.4375 0 L 4.4375 -44.546875 L 14.828125 -44.546875 Z M 14.828125 0 "/></g></g></g><g fill="#1a347f" fill-opacity="1"><g transform="translate(332.112587, 126.564332)"><g><path d="M 18.3125 -32.71875 C 23.914062 -32.71875 28.125 -30.992188 30.9375 -27.546875 C 33.757812 -24.109375 34.992188 -19.390625 34.640625 -13.390625 L 11.890625 -13.390625 C 12.410156 -11.460938 13.328125 -9.976562 14.640625 -8.9375 C 15.960938 -7.90625 17.585938 -7.390625 19.515625 -7.390625 C 22.472656 -7.390625 25.050781 -8.488281 27.25 -10.6875 L 32.71875 -5.34375 C 29.238281 -1.539062 24.535156 0.359375 18.609375 0.359375 C 13.367188 0.359375 9.195312 -1.140625 6.09375 -4.140625 C 2.988281 -7.140625 1.4375 -11.125 1.4375 -16.09375 C 1.4375 -21.09375 2.988281 -25.113281 6.09375 -28.15625 C 9.195312 -31.195312 13.269531 -32.71875 18.3125 -32.71875 Z M 11.703125 -18.96875 L 24.671875 -18.96875 C 24.671875 -20.925781 24.097656 -22.503906 22.953125 -23.703125 C 21.816406 -24.910156 20.304688 -25.515625 18.421875 -25.515625 C 16.660156 -25.515625 15.179688 -24.921875 13.984375 -23.734375 C 12.785156 -22.554688 12.023438 -20.96875 11.703125 -18.96875 Z M 11.703125 -18.96875 "/></g></g></g><g fill="#1a347f" fill-opacity="1"><g transform="translate(137.817, 74.4127)"><g><path d="M 22.5625 -39.46875 C 25.332031 -39.46875 28.035156 -38.929688 30.671875 -37.859375 C 33.316406 -36.796875 35.59375 -35.3125 37.5 -33.40625 L 33.625 -28.578125 C 32.207031 -30.109375 30.523438 -31.320312 28.578125 -32.21875 C 26.628906 -33.125 24.664062 -33.578125 22.6875 -33.578125 C 18.75 -33.578125 15.421875 -32.238281 12.703125 -29.5625 C 9.992188 -26.882812 8.640625 -23.617188 8.640625 -19.765625 C 8.640625 -15.867188 9.992188 -12.582031 12.703125 -9.90625 C 15.421875 -7.226562 18.75 -5.890625 22.6875 -5.890625 C 26.757812 -5.890625 30.40625 -7.441406 33.625 -10.546875 L 37.5625 -6.171875 C 35.539062 -4.191406 33.179688 -2.617188 30.484375 -1.453125 C 27.785156 -0.296875 25.070312 0.28125 22.34375 0.28125 C 16.582031 0.28125 11.734375 -1.632812 7.796875 -5.46875 C 3.867188 -9.3125 1.90625 -14.054688 1.90625 -19.703125 C 1.90625 -25.285156 3.894531 -29.972656 7.875 -33.765625 C 11.863281 -37.566406 16.757812 -39.46875 22.5625 -39.46875 Z M 22.5625 -39.46875 "/></g></g></g><g fill="#1a347f" fill-opacity="1"><g transform="translate(176.943951, 74.4127)"><g><path d="M 11.515625 0 L 5.046875 0 L 5.046875 -41.65625 L 11.515625 -41.65625 Z M 11.515625 0 "/></g></g></g><g fill="#1a347f" fill-opacity="1"><g transform="translate(193.50414, 74.4127)"><g><path d="M 16.78125 -39.640625 L 9.9375 -34.140625 L 4.203125 -34.140625 L 10.15625 -42.4375 Z M 11.171875 0 L 4.765625 0 L 4.765625 -29.859375 L 11.171875 -29.859375 Z M 11.171875 0 "/></g></g></g><g fill="#1a347f" fill-opacity="1"><g transform="translate(209.446831, 74.4127)"><g><path d="M 22.234375 -30.09375 C 25.710938 -30.09375 28.429688 -29.070312 30.390625 -27.03125 C 32.359375 -24.988281 33.34375 -22.171875 33.34375 -18.578125 L 33.34375 0 L 26.890625 0 L 26.890625 -16.78125 C 26.890625 -19.03125 26.253906 -20.800781 24.984375 -22.09375 C 23.710938 -23.382812 21.953125 -24.03125 19.703125 -24.03125 C 17.304688 -23.988281 15.347656 -23.21875 13.828125 -21.71875 C 12.316406 -20.226562 11.453125 -18.285156 11.234375 -15.890625 L 11.234375 0 L 4.765625 0 L 4.765625 -29.859375 L 11.234375 -29.859375 L 11.234375 -24.140625 C 13.253906 -28.109375 16.921875 -30.09375 22.234375 -30.09375 Z M 22.234375 -30.09375 "/></g></g></g><g fill="#1a347f" fill-opacity="1"><g transform="translate(246.665141, 74.4127)"><g><path d="M 5.265625 -41.234375 C 5.984375 -41.960938 6.882812 -42.328125 7.96875 -42.328125 C 9.050781 -42.328125 9.945312 -41.960938 10.65625 -41.234375 C 11.375 -40.503906 11.734375 -39.5625 11.734375 -38.40625 C 11.734375 -37.28125 11.375 -36.351562 10.65625 -35.625 C 9.945312 -34.894531 9.050781 -34.53125 7.96875 -34.53125 C 6.882812 -34.53125 5.984375 -34.894531 5.265625 -35.625 C 4.554688 -36.351562 4.203125 -37.28125 4.203125 -38.40625 C 4.203125 -39.5625 4.554688 -40.503906 5.265625 -41.234375 Z M 11.171875 0 L 4.765625 0 L 4.765625 -29.859375 L 11.171875 -29.859375 Z M 11.171875 0 "/></g></g></g><g fill="#1a347f" fill-opacity="1"><g transform="translate(262.607832, 74.4127)"><g><path d="M 17.015625 -30.09375 C 22.398438 -30.09375 26.515625 -28.460938 29.359375 -25.203125 L 25.828125 -21.046875 C 23.578125 -23.335938 20.734375 -24.460938 17.296875 -24.421875 C 14.710938 -24.421875 12.585938 -23.53125 10.921875 -21.75 C 9.253906 -19.976562 8.421875 -17.6875 8.421875 -14.875 C 8.421875 -12.070312 9.253906 -9.78125 10.921875 -8 C 12.585938 -6.21875 14.710938 -5.328125 17.296875 -5.328125 C 21.109375 -5.328125 24.046875 -6.523438 26.109375 -8.921875 L 29.703125 -5.328125 C 26.890625 -1.628906 22.660156 0.21875 17.015625 0.21875 C 12.554688 0.21875 8.929688 -1.171875 6.140625 -3.953125 C 3.359375 -6.742188 1.96875 -10.382812 1.96875 -14.875 C 1.96875 -19.40625 3.359375 -23.070312 6.140625 -25.875 C 8.929688 -28.6875 12.554688 -30.09375 17.015625 -30.09375 Z M 17.015625 -30.09375 "/></g></g></g><g fill="#1a347f" fill-opacity="1"><g transform="translate(294.268674, 74.4127)"><g><path d="M 22.6875 0 L 22.6875 -3.65625 C 20.550781 -1.03125 17.253906 0.28125 12.796875 0.28125 C 9.617188 0.28125 7.070312 -0.585938 5.15625 -2.328125 C 3.25 -4.066406 2.296875 -6.285156 2.296875 -8.984375 C 2.296875 -11.710938 3.285156 -13.878906 5.265625 -15.484375 C 7.253906 -17.097656 10.03125 -17.925781 13.59375 -17.96875 L 22.625 -17.96875 L 22.625 -18.859375 C 22.625 -20.765625 22.015625 -22.242188 20.796875 -23.296875 C 19.578125 -24.347656 17.8125 -24.875 15.5 -24.875 C 12.613281 -24.875 9.675781 -23.863281 6.6875 -21.84375 L 4.046875 -26.328125 C 6.328125 -27.671875 8.375 -28.632812 10.1875 -29.21875 C 12 -29.800781 14.234375 -30.09375 16.890625 -30.09375 C 20.710938 -30.09375 23.671875 -29.164062 25.765625 -27.3125 C 27.859375 -25.457031 28.925781 -22.882812 28.96875 -19.59375 L 29.03125 0 Z M 14.140625 -4.828125 C 16.429688 -4.828125 18.367188 -5.359375 19.953125 -6.421875 C 21.546875 -7.492188 22.4375 -8.851562 22.625 -10.5 L 22.625 -13.25 L 14.546875 -13.25 C 12.410156 -13.25 10.84375 -12.9375 9.84375 -12.3125 C 8.851562 -11.695312 8.359375 -10.679688 8.359375 -9.265625 C 8.359375 -7.910156 8.875 -6.832031 9.90625 -6.03125 C 10.9375 -5.226562 12.347656 -4.828125 14.140625 -4.828125 Z M 14.140625 -4.828125 "/></g></g></g></svg>