<svg width="22" height="18" viewBox="0 0 22 18" fill="none" xmlns="http://www.w3.org/2000/svg">
<path d="M15.5898 0C13.6498 0 11.9513 0.8325 10.8926 2.23969C9.83384 0.8325 8.13533 0 6.19538 0C4.65116 0.00173694 3.17067 0.614681 2.07874 1.70436C0.986804 2.79404 0.37259 4.27146 0.37085 5.8125C0.37085 12.375 10.1213 17.6869 10.5365 17.9062C10.646 17.965 10.7683 17.9958 10.8926 17.9958C11.0169 17.9958 11.1392 17.965 11.2486 17.9062C11.6639 17.6869 21.4143 12.375 21.4143 5.8125C21.4126 4.27146 20.7984 2.79404 19.7064 1.70436C18.6145 0.614681 17.134 0.00173694 15.5898 0ZM10.8926 16.3875C9.17717 15.39 1.87396 10.8459 1.87396 5.8125C1.87545 4.66921 2.33122 3.57317 3.14132 2.76475C3.95142 1.95632 5.04973 1.50149 6.19538 1.5C8.0226 1.5 9.5567 2.47125 10.1974 4.03125C10.254 4.16881 10.3503 4.28646 10.4741 4.36926C10.5979 4.45207 10.7436 4.49627 10.8926 4.49627C11.0416 4.49627 11.1873 4.45207 11.311 4.36926C11.4348 4.28646 11.5312 4.16881 11.5878 4.03125C12.2285 2.46844 13.7626 1.5 15.5898 1.5C16.7355 1.50149 17.8338 1.95632 18.6439 2.76475C19.454 3.57317 19.9097 4.66921 19.9112 5.8125C19.9112 10.8384 12.6061 15.3891 10.8926 16.3875Z" fill="#484848"/>
</svg>
